<mxfile host="app.diagrams.net" agent="Mozilla/5.0 (X11; Linux x86_64) AppleWebKit/537.36 (KHTML, like Gecko) Chrome/137.0.0.0 Safari/537.36" version="28.2.4">
  <diagram name="第 1 页" id="UHPySPjpCCrnfIjIzU9O">
    <mxGraphModel dx="1479" dy="964" grid="0" gridSize="10" guides="1" tooltips="1" connect="1" arrows="1" fold="1" page="0" pageScale="1" pageWidth="827" pageHeight="1169" math="0" shadow="0">
      <root>
        <mxCell id="0" />
        <mxCell id="1" parent="0" />
        <mxCell id="yaCoRFOfVmRl67DTZ7u7-12" style="edgeStyle=orthogonalEdgeStyle;rounded=0;orthogonalLoop=1;jettySize=auto;html=1;entryX=0;entryY=0.5;entryDx=0;entryDy=0;sketch=1;curveFitting=1;jiggle=2;" edge="1" parent="1" source="yaCoRFOfVmRl67DTZ7u7-1" target="yaCoRFOfVmRl67DTZ7u7-7">
          <mxGeometry relative="1" as="geometry" />
        </mxCell>
        <mxCell id="yaCoRFOfVmRl67DTZ7u7-1" value="variable" style="rounded=1;whiteSpace=wrap;html=1;sketch=1;curveFitting=1;jiggle=2;fontFamily=Comic Sans MS;fontSize=15;" vertex="1" parent="1">
          <mxGeometry x="160" y="300" width="120" height="60" as="geometry" />
        </mxCell>
        <mxCell id="yaCoRFOfVmRl67DTZ7u7-13" style="edgeStyle=orthogonalEdgeStyle;rounded=0;orthogonalLoop=1;jettySize=auto;html=1;exitX=1;exitY=0.5;exitDx=0;exitDy=0;entryX=0;entryY=0.5;entryDx=0;entryDy=0;sketch=1;curveFitting=1;jiggle=2;" edge="1" parent="1" source="yaCoRFOfVmRl67DTZ7u7-2" target="yaCoRFOfVmRl67DTZ7u7-8">
          <mxGeometry relative="1" as="geometry" />
        </mxCell>
        <mxCell id="yaCoRFOfVmRl67DTZ7u7-2" value="type" style="rounded=1;whiteSpace=wrap;html=1;sketch=1;curveFitting=1;jiggle=2;fontFamily=Comic Sans MS;fontSize=15;" vertex="1" parent="1">
          <mxGeometry x="160" y="360" width="120" height="60" as="geometry" />
        </mxCell>
        <mxCell id="yaCoRFOfVmRl67DTZ7u7-14" style="edgeStyle=orthogonalEdgeStyle;rounded=0;orthogonalLoop=1;jettySize=auto;html=1;exitX=1;exitY=0.5;exitDx=0;exitDy=0;entryX=0;entryY=0.5;entryDx=0;entryDy=0;sketch=1;curveFitting=1;jiggle=2;" edge="1" parent="1" source="yaCoRFOfVmRl67DTZ7u7-3" target="yaCoRFOfVmRl67DTZ7u7-9">
          <mxGeometry relative="1" as="geometry" />
        </mxCell>
        <mxCell id="yaCoRFOfVmRl67DTZ7u7-3" value="cursor" style="rounded=1;whiteSpace=wrap;html=1;sketch=1;curveFitting=1;jiggle=2;fontFamily=Comic Sans MS;fontSize=15;" vertex="1" parent="1">
          <mxGeometry x="160" y="420" width="120" height="60" as="geometry" />
        </mxCell>
        <mxCell id="yaCoRFOfVmRl67DTZ7u7-15" style="edgeStyle=orthogonalEdgeStyle;rounded=0;orthogonalLoop=1;jettySize=auto;html=1;exitX=1;exitY=0.5;exitDx=0;exitDy=0;sketch=1;curveFitting=1;jiggle=2;" edge="1" parent="1" source="yaCoRFOfVmRl67DTZ7u7-5" target="yaCoRFOfVmRl67DTZ7u7-10">
          <mxGeometry relative="1" as="geometry" />
        </mxCell>
        <mxCell id="yaCoRFOfVmRl67DTZ7u7-5" value="exception" style="rounded=1;whiteSpace=wrap;html=1;sketch=1;curveFitting=1;jiggle=2;fontFamily=Comic Sans MS;fontSize=15;" vertex="1" parent="1">
          <mxGeometry x="160" y="480" width="120" height="60" as="geometry" />
        </mxCell>
        <mxCell id="yaCoRFOfVmRl67DTZ7u7-16" style="edgeStyle=orthogonalEdgeStyle;rounded=0;orthogonalLoop=1;jettySize=auto;html=1;exitX=1;exitY=0.5;exitDx=0;exitDy=0;sketch=1;curveFitting=1;jiggle=2;" edge="1" parent="1" source="yaCoRFOfVmRl67DTZ7u7-6" target="yaCoRFOfVmRl67DTZ7u7-11">
          <mxGeometry relative="1" as="geometry" />
        </mxCell>
        <mxCell id="yaCoRFOfVmRl67DTZ7u7-6" value="lambda" style="rounded=1;whiteSpace=wrap;html=1;sketch=1;curveFitting=1;jiggle=2;fontFamily=Comic Sans MS;fontSize=15;" vertex="1" parent="1">
          <mxGeometry x="160" y="540" width="120" height="60" as="geometry" />
        </mxCell>
        <mxCell id="yaCoRFOfVmRl67DTZ7u7-7" value="$v{num}" style="rounded=1;whiteSpace=wrap;html=1;sketch=1;curveFitting=1;jiggle=2;fontFamily=Comic Sans MS;fontSize=15;" vertex="1" parent="1">
          <mxGeometry x="354" y="300" width="120" height="60" as="geometry" />
        </mxCell>
        <mxCell id="yaCoRFOfVmRl67DTZ7u7-8" value="$t{num}" style="rounded=1;whiteSpace=wrap;html=1;sketch=1;curveFitting=1;jiggle=2;fontFamily=Comic Sans MS;fontSize=15;" vertex="1" parent="1">
          <mxGeometry x="354" y="360" width="120" height="60" as="geometry" />
        </mxCell>
        <mxCell id="yaCoRFOfVmRl67DTZ7u7-9" value="$c{num}" style="rounded=1;whiteSpace=wrap;html=1;sketch=1;curveFitting=1;jiggle=2;fontFamily=Comic Sans MS;fontSize=15;" vertex="1" parent="1">
          <mxGeometry x="354" y="420" width="120" height="60" as="geometry" />
        </mxCell>
        <mxCell id="yaCoRFOfVmRl67DTZ7u7-10" value="$e{num}" style="rounded=1;whiteSpace=wrap;html=1;sketch=1;curveFitting=1;jiggle=2;fontFamily=Comic Sans MS;fontSize=15;" vertex="1" parent="1">
          <mxGeometry x="354" y="480" width="120" height="60" as="geometry" />
        </mxCell>
        <mxCell id="yaCoRFOfVmRl67DTZ7u7-11" value="$l{num}" style="rounded=1;whiteSpace=wrap;html=1;sketch=1;curveFitting=1;jiggle=2;fontFamily=Comic Sans MS;fontSize=15;" vertex="1" parent="1">
          <mxGeometry x="354" y="540" width="120" height="60" as="geometry" />
        </mxCell>
      </root>
    </mxGraphModel>
  </diagram>
</mxfile>
